<?xml version="1.0" encoding="UTF-8"?>
<svg id="Layer_1" data-name="Layer 1" xmlns="http://www.w3.org/2000/svg" xmlns:xlink="http://www.w3.org/1999/xlink" viewBox="0 0 788.57 788.57">
  <defs>
    <style>
      .cls-1 {
        fill: #08307f;
      }

      .cls-1, .cls-2, .cls-3, .cls-4 {
        stroke-width: 0px;
      }

      .cls-2 {
        fill: none;
      }

      .cls-5 {
        clip-path: url(#clippath-1);
      }

      .cls-3 {
        fill: #fff;
      }

      .cls-6 {
        clip-path: url(#clippath);
      }

      .cls-4 {
        fill: #0bdb69;
      }
    </style>
    <clipPath id="clippath">
      <rect class="cls-2" width="788.57" height="788.57"/>
    </clipPath>
    <clipPath id="clippath-1">
      <rect class="cls-2" width="788.57" height="788.57"/>
    </clipPath>
  </defs>
  <g class="cls-6">
    <rect class="cls-1" x=".23" y=".49" width="788.34" height="788.09"/>
    <g class="cls-5">
      <path class="cls-3" d="M291.63,423.57c-4.09-2.66-7.07-6.23-8.96-10.71-1.89-4.47-2.83-9.53-2.83-15.17s1.06-11,3.18-15.73c2.12-4.73,5.22-8.48,9.31-11.26,4.08-2.78,8.95-4.17,14.59-4.17,8.4,0,14.41,2.42,18.03,7.27,3.62,4.84,5.43,12.07,5.43,21.68,0,1.87-.08,3.97-.23,6.3h-35.01c.23,4.71,1.55,8.33,3.94,10.88,2.39,2.55,5.9,3.82,10.53,3.82,2.41,0,5-.54,7.76-1.6,2.76-1.07,4.8-2.36,6.13-3.88l4.67,11.09c-5.48,3.66-12.49,5.48-21.01,5.48-6.26,0-11.44-1.33-15.52-4M315.56,392.67c0-5.72-.71-9.66-2.13-11.82-1.42-2.16-3.47-3.24-6.16-3.24-3.77,0-6.7,1.4-8.78,4.2-2.08,2.8-3.24,6.42-3.47,10.85h20.54Z"/>
      <path class="cls-3" d="M343.57,367.93h13.19l.7,10.27c1.24-3,3.21-5.57,5.89-7.73,2.68-2.16,6.48-3.24,11.38-3.24,1.94,0,3.73.31,5.37.93l-3.27,15.29c-.66-.66-1.45-1.14-2.36-1.43-.91-.29-2.03-.44-3.36-.44-2.72,0-5.07.57-7.03,1.72-1.96,1.15-3.44,2.48-4.43,4-.99,1.52-1.49,2.76-1.49,3.73v35.01h-14.59v-58.12Z"/>
      <rect class="cls-3" x="388.84" y="367.93" width="15.17" height="58.12"/>
      <path class="cls-3" d="M428.67,423.89c-3.48-2.53-6.17-6.1-8.05-10.71-1.89-4.61-2.83-9.97-2.83-16.08,0-9.73,1.97-17.25,5.92-22.58,3.95-5.33,9.75-7.99,17.42-7.99,4.01,0,7.37.99,10.1,2.97,2.72,1.98,4.49,4.81,5.31,8.46l-1.05-8.52v-32.09h13.77v88.69h-12.72v-11.9c-1.09,4.16-2.98,7.46-5.66,9.89-2.68,2.43-6.01,3.65-9.98,3.65-4.67,0-8.74-1.27-12.23-3.79M449.67,414.15c1.65-1.32,2.98-3.39,3.97-6.21.99-2.82,1.49-6.35,1.49-10.59,0-6.15-.88-10.85-2.63-14.12-1.75-3.27-4.38-4.9-7.88-4.9-2.02,0-3.92.6-5.69,1.81-1.77,1.21-3.23,3.21-4.38,6.01-1.15,2.8-1.72,6.46-1.72,10.97,0,4.16.5,7.66,1.49,10.5.99,2.84,2.35,4.97,4.08,6.39,1.73,1.42,3.69,2.13,5.87,2.13,1.94,0,3.74-.66,5.4-1.98"/>
      <path class="cls-3" d="M492.71,423.57c-4.09-2.66-7.07-6.23-8.96-10.71-1.89-4.47-2.83-9.53-2.83-15.17s1.06-11,3.18-15.73c2.12-4.73,5.22-8.48,9.31-11.26,4.08-2.78,8.95-4.17,14.59-4.17,8.4,0,14.41,2.42,18.03,7.27,3.62,4.84,5.43,12.07,5.43,21.68,0,1.87-.08,3.97-.23,6.3h-35.01c.23,4.71,1.55,8.33,3.94,10.88,2.39,2.55,5.9,3.82,10.53,3.82,2.41,0,5-.54,7.76-1.6,2.76-1.07,4.8-2.36,6.13-3.88l4.67,11.09c-5.48,3.66-12.49,5.48-21.01,5.48-6.26,0-11.44-1.33-15.52-4M516.63,392.67c0-5.72-.71-9.66-2.13-11.82-1.42-2.16-3.47-3.24-6.15-3.24-3.78,0-6.7,1.4-8.78,4.2-2.08,2.8-3.24,6.42-3.47,10.85h20.54Z"/>
      <polygon class="cls-3" points="550.01 404.58 554.32 397.46 549.89 389.99 537.99 367.93 554.56 367.93 561.56 382.64 564.48 389.41 567.51 382.64 574.4 367.93 589.92 367.93 578.25 389.52 574.05 396.88 578.25 403.88 590.85 426.05 574.4 426.05 565.99 410.41 563.43 405.16 561.33 410.41 554.09 426.05 537.99 426.05 550.01 404.58"/>
      <polygon class="cls-4" points="289.26 337.07 251.01 426.89 198.18 389.09 207.2 376.89 246.88 405.08 277.12 332.14 289.26 337.07"/>
      <path class="cls-4" d="M573.35,352.88c0,5.37-4.35,9.73-9.73,9.73s-9.72-4.35-9.72-9.73,4.35-9.72,9.72-9.72,9.73,4.35,9.73,9.72"/>
      <path class="cls-3" d="M406.15,352.88c0,5.37-4.35,9.73-9.73,9.73s-9.72-4.35-9.72-9.73,4.35-9.72,9.72-9.72,9.73,4.35,9.73,9.72"/>
    </g>
  </g>
</svg>